{
  "accessors": [
    {
      "bufferView": 2,
      "componentType": 5126,
      "count": 1550,
      "max": [
        69.42977142333984,
        33.796051025390625,
        69.4297866821289
      ],
      "min": [
        -69.42977142333984,
        0.1326724886894226,
        -69.4297866821289
      ],
      "type": "VEC3"
    },
    {
      "bufferView": 2,
      "byteOffset": 18600,
      "componentType": 5126,
      "count": 1550,
      "max": [
        0.9584017992019653,
        0.9996909499168396,
        0.9984959959983826
      ],
      "min": [
        -0.9580029249191284,
        -0.9999764561653137,
        -0.9991825222969055
      ],
      "type": "VEC3"
    },
    {
      "bufferView": 1,
      "componentType": 5126,
      "count": 1550,
      "max": [
        0.9234566688537598,
        0.9970769286155701
      ],
      "min": [
        0.0018432269571349025,
        0.00199203216470778
      ],
      "type": "VEC2"
    },
    {
      "bufferView": 0,
      "componentType": 5125,
      "count": 5640,
      "type": "SCALAR"
    },
    {
      "bufferView": 2,
      "byteOffset": 37200,
      "componentType": 5126,
      "count": 410,
      "max": [
        63.25096130371094,
        33.56724166870117,
        63.250972747802734
      ],
      "min": [
        -63.24635696411133,
        28.472274780273438,
        -63.2509651184082
      ],
      "type": "VEC3"
    },
    {
      "bufferView": 2,
      "byteOffset": 42120,
      "componentType": 5126,
      "count": 410,
      "max": [
        0.9914076328277588,
        0.9753023982048035,
        0.9984959959983826
      ],
      "min": [
        -0.9932679533958435,
        0.009186326526105404,
        -0.9991825222969055
      ],
      "type": "VEC3"
    },
    {
      "bufferView": 1,
      "byteOffset": 12400,
      "componentType": 5126,
      "count": 410,
      "max": [
        -0.3207889795303345,
        0.690151572227478
      ],
      "min": [
        -0.6791263222694397,
        0.29786914587020874
      ],
      "type": "VEC2"
    },
    {
      "bufferView": 0,
      "byteOffset": 22560,
      "componentType": 5125,
      "count": 1140,
      "type": "SCALAR"
    }
  ],
  "asset": {
    "extras": {
      "author": "dasnymth (https://sketchfab.com/dasnymth)",
      "license": "CC-BY-4.0 (http://creativecommons.org/licenses/by/4.0/)",
      "source": "https://sketchfab.com/3d-models/hologram-projector-905823a25aa1457ba4087c09b0f312aa",
      "title": "Hologram Projector"
    },
    "generator": "Sketchfab-12.68.0",
    "version": "2.0"
  },
  "bufferViews": [
    {
      "buffer": 0,
      "byteLength": 27120,
      "name": "floatBufferViews",
      "target": 34963
    },
    {
      "buffer": 0,
      "byteLength": 15680,
      "byteOffset": 27120,
      "byteStride": 8,
      "name": "floatBufferViews",
      "target": 34962
    },
    {
      "buffer": 0,
      "byteLength": 47040,
      "byteOffset": 42800,
      "byteStride": 12,
      "name": "floatBufferViews",
      "target": 34962
    }
  ],
  "buffers": [
    {
      "byteLength": 89840,
      "uri": "scene.bin"
    }
  ],
  "extensionsRequired": [
    "KHR_materials_pbrSpecularGlossiness"
  ],
  "extensionsUsed": [
    "KHR_materials_pbrSpecularGlossiness"
  ],
  "images": [
    {
      "uri": "textures/body_diffuse.png"
    },
    {
      "uri": "textures/material_diffuse.png"
    }
  ],
  "materials": [
    {
      "doubleSided": true,
      "extensions": {
        "KHR_materials_pbrSpecularGlossiness": {
          "diffuseFactor": [
            1.0,
            1.0,
            1.0,
            1.0
          ],
          "diffuseTexture": {
            "index": 0
          },
          "glossinessFactor": 0.02829779635620394,
          "specularFactor": [
            0.4516428627887322,
            0.4516428627887322,
            0.4516428627887322
          ]
        }
      },
      "name": "body"
    },
    {
      "doubleSided": true,
      "emissiveFactor": [
        0.0844156,
        0.0844156,
        0.0844156
      ],
      "extensions": {
        "KHR_materials_pbrSpecularGlossiness": {
          "diffuseFactor": [
            1.0,
            1.0,
            1.0,
            1.0
          ],
          "diffuseTexture": {
            "index": 1
          },
          "glossinessFactor": 0.7556515209553168,
          "specularFactor": [
            0.14155403145881595,
            0.14155403145881595,
            0.14155403145881595
          ]
        }
      },
      "name": "material"
    }
  ],
  "meshes": [
    {
      "name": "pTorus1_body_0",
      "primitives": [
        {
          "attributes": {
            "NORMAL": 1,
            "POSITION": 0,
            "TEXCOORD_0": 2
          },
          "indices": 3,
          "material": 0,
          "mode": 4
        }
      ]
    },
    {
      "name": "pTorus1_gem_0",
      "primitives": [
        {
          "attributes": {
            "NORMAL": 5,
            "POSITION": 4,
            "TEXCOORD_0": 6
          },
          "indices": 7,
          "material": 1,
          "mode": 4
        }
      ]
    }
  ],
  "nodes": [
    {
      "children": [
        1
      ],
      "matrix": [
        1.0,
        0.0,
        0.0,
        0.0,
        0.0,
        2.220446049250313e-16,
        -1.0,
        0.0,
        0.0,
        1.0,
        2.220446049250313e-16,
        0.0,
        0.0,
        0.0,
        0.0,
        1.0
      ],
      "name": "Sketchfab_model"
    },
    {
      "children": [
        2
      ],
      "matrix": [
        0.009999999776482582,
        0.0,
        0.0,
        0.0,
        0.0,
        0.0,
        0.009999999776482582,
        0.0,
        0.0,
        -0.009999999776482582,
        0.0,
        0.0,
        0.0,
        0.0,
        0.0,
        1.0
      ],
      "name": "80142044facc4a7b9ffc519a50ac15f2.fbx"
    },
    {
      "children": [
        3
      ],
      "name": "RootNode"
    },
    {
      "children": [
        4,
        5
      ],
      "name": "pTorus1"
    },
    {
      "mesh": 0,
      "name": "pTorus1_body_0"
    },
    {
      "mesh": 1,
      "name": "pTorus1_gem_0"
    }
  ],
  "samplers": [
    {
      "magFilter": 9729,
      "minFilter": 9987,
      "wrapS": 10497,
      "wrapT": 10497
    }
  ],
  "scene": 0,
  "scenes": [
    {
      "name": "Sketchfab_Scene",
      "nodes": [
        0
      ]
    }
  ],
  "textures": [
    {
      "sampler": 0,
      "source": 0
    },
    {
      "sampler": 0,
      "source": 1
    }
  ]
}
