{
  "accessors": [
    {
      "bufferView": 2,
      "componentType": 5126,
      "count": 588,
      "max": [
        1.3681403398513794,
        4.632349014282227,
        6.175155162811279
      ],
      "min": [
        -1.3681403398513794,
        -0.620598554611206,
        -0.08795058727264404
      ],
      "type": "VEC3"
    },
    {
      "bufferView": 2,
      "byteOffset": 7056,
      "componentType": 5126,
      "count": 588,
      "max": [
        1.0,
        1.0,
        1.0
      ],
      "min": [
        -1.0,
        -1.0,
        -1.0
      ],
      "type": "VEC3"
    },
    {
      "bufferView": 1,
      "componentType": 5126,
      "count": 588,
      "max": [
        0.8570175170898438,
        0.9808549880981445
      ],
      "min": [
        0.0,
        0.0
      ],
      "type": "VEC2"
    },
    {
      "bufferView": 0,
      "componentType": 5125,
      "count": 1554,
      "type": "SCALAR"
    }
  ],
  "asset": {
    "extras": {
      "author": "ashley.carboon (https://sketchfab.com/ashley.carboon)",
      "license": "CC-BY-4.0 (http://creativecommons.org/licenses/by/4.0/)",
      "source": "https://sketchfab.com/3d-models/slide-bfccc771e7fe42559e5742701ae9a908",
      "title": "Slide"
    },
    "generator": "Sketchfab-12.68.0",
    "version": "2.0"
  },
  "bufferViews": [
    {
      "buffer": 0,
      "byteLength": 6216,
      "name": "floatBufferViews",
      "target": 34963
    },
    {
      "buffer": 0,
      "byteLength": 4704,
      "byteOffset": 6216,
      "byteStride": 8,
      "name": "floatBufferViews",
      "target": 34962
    },
    {
      "buffer": 0,
      "byteLength": 14112,
      "byteOffset": 10920,
      "byteStride": 12,
      "name": "floatBufferViews",
      "target": 34962
    }
  ],
  "buffers": [
    {
      "byteLength": 25032,
      "uri": "scene.bin"
    }
  ],
  "images": [
    {
      "uri": "textures/blinn2_baseColor.png"
    }
  ],
  "materials": [
    {
      "doubleSided": true,
      "name": "blinn2",
      "pbrMetallicRoughness": {
        "baseColorTexture": {
          "index": 0
        },
        "metallicFactor": 0.713090308811995,
        "roughnessFactor": 0.9207483816249483
      }
    }
  ],
  "meshes": [
    {
      "name": "pCube1_blinn2_0",
      "primitives": [
        {
          "attributes": {
            "NORMAL": 1,
            "POSITION": 0,
            "TEXCOORD_0": 2
          },
          "indices": 3,
          "material": 0,
          "mode": 4
        }
      ]
    }
  ],
  "nodes": [
    {
      "children": [
        1
      ],
      "matrix": [
        1.0,
        0.0,
        0.0,
        0.0,
        0.0,
        2.220446049250313e-16,
        -1.0,
        0.0,
        0.0,
        1.0,
        2.220446049250313e-16,
        0.0,
        0.0,
        0.0,
        0.0,
        1.0
      ],
      "name": "Sketchfab_model"
    },
    {
      "children": [
        2
      ],
      "matrix": [
        1.0,
        0.0,
        0.0,
        0.0,
        0.0,
        0.0,
        1.0,
        0.0,
        0.0,
        -1.0,
        0.0,
        0.0,
        0.0,
        0.0,
        0.0,
        1.0
      ],
      "name": "9743df53d03f40e7a7c1751120b363ca.fbx"
    },
    {
      "children": [
        3
      ],
      "name": "RootNode"
    },
    {
      "children": [
        4
      ],
      "matrix": [
        1.0,
        0.0,
        0.0,
        0.0,
        0.0,
        1.0,
        0.0,
        0.0,
        0.0,
        0.0,
        1.0,
        0.0,
        0.0,
        1.3556336164474487,
        0.0,
        1.0
      ],
      "name": "pCube1"
    },
    {
      "mesh": 0,
      "name": "pCube1_blinn2_0"
    }
  ],
  "samplers": [
    {
      "magFilter": 9729,
      "minFilter": 9987,
      "wrapS": 10497,
      "wrapT": 10497
    }
  ],
  "scene": 0,
  "scenes": [
    {
      "name": "Sketchfab_Scene",
      "nodes": [
        0
      ]
    }
  ],
  "textures": [
    {
      "sampler": 0,
      "source": 0
    }
  ]
}
