{
  "accessors": [
    {
      "bufferView": 2,
      "componentType": 5126,
      "count": 1863,
      "max": [
        0.4688200056552887,
        0.14154000580310822,
        1.0
      ],
      "min": [
        -0.4688200056552887,
        -0.14820000529289246,
        -1.0
      ],
      "type": "VEC3"
    },
    {
      "bufferView": 2,
      "byteOffset": 22356,
      "componentType": 5126,
      "count": 1863,
      "max": [
        1.0,
        1.0,
        1.0
      ],
      "min": [
        -1.0,
        -1.0,
        -1.0
      ],
      "type": "VEC3"
    },
    {
      "bufferView": 1,
      "componentType": 5126,
      "count": 1863,
      "max": [
        0.90802001953125,
        0.9996600151062012
      ],
      "min": [
        0.0,
        -0.0019199999514967203
      ],
      "type": "VEC2"
    },
    {
      "bufferView": 0,
      "componentType": 5125,
      "count": 4530,
      "type": "SCALAR"
    }
  ],
  "asset": {
    "extras": {
      "author": "Tomations (https://sketchfab.com/Tomations)",
      "license": "CC-BY-4.0 (http://creativecommons.org/licenses/by/4.0/)",
      "source": "https://sketchfab.com/3d-models/shelf-e4f61a040005423e8e014785755bbdb5",
      "title": "Shelf"
    },
    "generator": "Sketchfab-12.63.0",
    "version": "2.0"
  },
  "bufferViews": [
    {
      "buffer": 0,
      "byteLength": 18120,
      "name": "floatBufferViews",
      "target": 34963
    },
    {
      "buffer": 0,
      "byteLength": 14904,
      "byteOffset": 18120,
      "byteStride": 8,
      "name": "floatBufferViews",
      "target": 34962
    },
    {
      "buffer": 0,
      "byteLength": 44712,
      "byteOffset": 33024,
      "byteStride": 12,
      "name": "floatBufferViews",
      "target": 34962
    }
  ],
  "buffers": [
    {
      "byteLength": 77736,
      "uri": "scene.bin"
    }
  ],
  "images": [
    {
      "uri": "textures/Book_Shelf_baseColor.jpeg"
    }
  ],
  "materials": [
    {
      "doubleSided": true,
      "name": "Book_Shelf",
      "pbrMetallicRoughness": {
        "baseColorTexture": {
          "index": 0
        },
        "metallicFactor": 0.0,
        "roughnessFactor": 0.6
      }
    }
  ],
  "meshes": [
    {
      "name": "Cube.006",
      "primitives": [
        {
          "attributes": {
            "NORMAL": 1,
            "POSITION": 0,
            "TEXCOORD_0": 2
          },
          "indices": 3,
          "material": 0,
          "mode": 4
        }
      ]
    }
  ],
  "nodes": [
    {
      "children": [
        1
      ],
      "matrix": [
        1.0,
        0.0,
        0.0,
        0.0,
        0.0,
        2.220446049250313e-16,
        -1.0,
        0.0,
        0.0,
        1.0,
        2.220446049250313e-16,
        0.0,
        0.0,
        0.0,
        0.0,
        1.0
      ],
      "name": "Sketchfab_model"
    },
    {
      "children": [
        2
      ],
      "name": "Root"
    },
    {
      "children": [
        3
      ],
      "matrix": [
        1.0389199999999998,
        0.0,
        0.0,
        0.0,
        0.0,
        1.0389199999999998,
        0.0,
        0.0,
        0.0,
        0.0,
        1.0389199999999998,
        0.0,
        -0.11366000000000002,
        0.002890000000000001,
        1.05086,
        1.0
      ],
      "name": "Cube.006"
    },
    {
      "mesh": 0,
      "name": "Cube.006"
    }
  ],
  "samplers": [
    {
      "magFilter": 9729,
      "minFilter": 9987,
      "wrapS": 10497,
      "wrapT": 10497
    }
  ],
  "scene": 0,
  "scenes": [
    {
      "name": "Sketchfab_Scene",
      "nodes": [
        0
      ]
    }
  ],
  "textures": [
    {
      "sampler": 0,
      "source": 0
    }
  ]
}
